<?xml version="1.0" standalone="no"?>
<!DOCTYPE svg PUBLIC "-//W3C//DTD SVG 20010904//EN"
 "http://www.w3.org/TR/2001/REC-SVG-20010904/DTD/svg10.dtd">
<svg version="1.0" xmlns="http://www.w3.org/2000/svg"
 width="400.000000pt" height="400.000000pt" viewBox="0 0 400.000000 400.000000"
 preserveAspectRatio="xMidYMid meet">

<g transform="translate(0.000000,400.000000) scale(0.100000,-0.100000)"
fill="#000000" stroke="none">
<path d="M2388 3209 c-43 -25 -23 -50 261 -332 153 -152 285 -277 293 -277 40
0 43 22 43 311 -1 211 -4 282 -13 291 -17 17 -558 23 -584 7z"/>
<path d="M1104 2616 c-19 -14 -19 -35 -19 -916 0 -881 0 -902 19 -916 15 -11
59 -14 191 -14 152 0 174 2 188 18 14 15 17 58 19 318 l3 299 60 88 c33 49 65
93 73 99 27 23 29 17 226 -494 107 -277 118 -303 145 -318 12 -6 95 -10 199
-10 143 0 182 3 191 14 12 14 -52 168 -387 926 -49 110 -86 209 -86 226 0 22
16 55 51 105 280 400 377 545 377 563 1 21 -2 21 -185 21 -170 0 -189 -2 -208
-19 -18 -16 -172 -269 -390 -639 -29 -48 -56 -85 -62 -82 -5 4 -9 148 -9 359
0 329 -1 354 -18 369 -16 14 -44 17 -188 17 -131 0 -175 -3 -190 -14z"/>
</g>
</svg>
