<svg version="1.0" xmlns="http://www.w3.org/2000/svg" width="533.333" height="533.333" viewBox="0 0 400 400"><path d="M238.8 79.1c-4.3 2.5-2.3 5 26.1 33.2 15.3 15.2 28.5 27.7 29.3 27.7 4 0 4.3-2.2 4.3-31.1-.1-21.1-.4-28.2-1.3-29.1-1.7-1.7-55.8-2.3-58.4-.7zm-128.4 59.3c-1.9 1.4-1.9 3.5-1.9 91.6s0 90.2 1.9 91.6c1.5 1.1 5.9 1.4 19.1 1.4 15.2 0 17.4-.2 18.8-1.8 1.4-1.5 1.7-5.8 1.9-31.8l.3-29.9 6-8.8c3.3-4.9 6.5-9.3 7.3-9.9 2.7-2.3 2.9-1.7 22.6 49.4 10.7 27.7 11.8 30.3 14.5 31.8 1.2.6 9.5 1 19.9 1 14.3 0 18.2-.3 19.1-1.4 1.2-1.4-5.2-16.8-38.7-92.6-4.9-11-8.6-20.9-8.6-22.6 0-2.2 1.6-5.5 5.1-10.5 28-40 37.7-54.5 37.7-56.3.1-2.1-.2-2.1-18.5-2.1-17 0-18.9.2-20.8 1.9-1.8 1.6-17.2 26.9-39 63.9-2.9 4.8-5.6 8.5-6.2 8.2-.5-.4-.9-14.8-.9-35.9 0-32.9-.1-35.4-1.8-36.9-1.6-1.4-4.4-1.7-18.8-1.7-13.1 0-17.5.3-19 1.4z"/></svg>